<?xml version="1.0" encoding="UTF-8" standalone="no"?>
<!-- Created with Inkscape (http://www.inkscape.org/) -->

<svg
   width="1200"
   height="800"
   viewBox="0 0 1200 800"
   version="1.1"
   id="svg1"
   xmlns="http://www.w3.org/2000/svg"
   xmlns:svg="http://www.w3.org/2000/svg"
   xmlns:rdf="http://www.w3.org/1999/02/22-rdf-syntax-ns#"
   xmlns:cc="http://creativecommons.org/ns#"
   xmlns:dc="http://purl.org/dc/elements/1.1/">
  <title
     id="title1">Landlock logo</title>
  <defs
     id="defs1" />
  <g
     id="layer1"
     transform="translate(-27.720551,-101.36087)">
    <g
       id="g10"
       transform="translate(-16.760736,45.50575)">
      <path
         id="path10"
         style="display:inline;fill:#ffffff;fill-opacity:1;stroke:#000000;stroke-width:0"
         d="m 771.32346,118.20533 -310.63578,179.34564 0.23609,100 -367.114996,211.95394 v 184 L 884.51804,792.98873 1195.1538,613.64309 v -140 z" />
      <g
         id="g77"
         transform="translate(400.31821,-45.763842)">
        <path
           id="rect10-5"
           style="display:inline;fill:#293133;fill-opacity:1;stroke:#000000;stroke-width:0"
           d="M 371.24133,213.96917 88.845181,377.01066 v 100 L 484.19983,808.75257 766.59593,645.71108 v -100 z"
           transform="translate(-1.2073511e-6,-10.000001)" />
        <path
           id="rect2"
           style="display:inline;fill:#fdde55;fill-opacity:1;stroke-width:1.23595"
           d="m 371.24132,323.96917 282.39616,236.9585 -169.4377,97.8249 -282.39613,-236.95849 z" />
        <path
           id="rect1"
           d="m 102.96498,378.8586 v 80 l 381.2348,319.89397 268.27635,-154.88942 v -80 L 484.19978,698.75257 Z"
           style="display:inline;fill:#03aed2;fill-opacity:1;stroke:#000000;stroke-width:0;stroke-dasharray:none;stroke-opacity:1" />
        <path
           id="use2"
           style="display:inline;fill:#68d2e8;fill-opacity:1;stroke:#000000;stroke-width:0;stroke-dasharray:none;stroke-opacity:1"
           d="m 173.56403,378.09822 v 40 L 484.19978,678.75257 681.87709,564.62351 V 524.62352 L 484.19978,638.75257 Z" />
        <path
           id="use2-2"
           style="display:inline;fill:#293133;fill-opacity:1;stroke:#000000;stroke-width:0;stroke-dasharray:none;stroke-opacity:1"
           d="m 187.68384,369.94615 -14.11981,8.15208 310.63575,260.65436 197.67731,-114.12907 -14.11981,-11.84791 -183.5575,105.97698 z" />
      </g>
      <g
         id="g9"
         transform="matrix(1.4186966,0,0,1.4186966,-60.044684,-421.94482)">
        <path
           d="m 148.5187,819.20752 h 30.58664 l -1.18888,8.97064 H 138.2511 v -74.46712 h 10.2676 z"
           id="text9"
           style="font-size:108.08px;font-family:'Fira Sans';-inkscape-font-specification:'Fira Sans, Normal';fill:#03aed2;stroke:#444444;stroke-width:0"
           aria-label="L" />
        <path
           d="m 230.77514,814.88432 q 0,3.45856 1.18888,5.18784 1.18888,1.6212 3.56664,2.48584 l -2.26968,6.91712 q -4.43128,-0.5404 -7.13328,-2.48584 -2.702,-1.94544 -3.99896,-6.05248 -5.72824,8.53832 -16.96856,8.53832 -8.43024,0 -13.29384,-4.75552 -4.86361,-4.75552 -4.86361,-12.4292 0,-9.07872 6.48481,-13.94232 6.59288,-4.8636 18.58976,-4.8636 h 8.75448 v -4.21512 q 0,-6.05248 -2.91816,-8.6464 -2.91816,-2.59392 -8.97064,-2.59392 -6.26864,0 -15.34736,3.02624 l -2.48584,-7.24136 q 10.59184,-3.89088 19.67056,-3.89088 10.05144,0 15.02312,4.97168 4.97168,4.8636 4.97168,13.94232 z m -23.34528,7.13328 q 8.53832,0 13.40192,-8.86256 v -13.07768 h -7.45752 q -15.77968,0 -15.77968,11.67264 0,5.07976 2.48584,7.67368 2.48584,2.59392 7.34944,2.59392 z"
           id="text8"
           style="font-size:108.08px;font-family:'Fira Sans';-inkscape-font-specification:'Fira Sans, Normal';fill:#03aed2;stroke:#444444;stroke-width:0"
           aria-label="a" />
        <path
           d="m 278.56352,769.92304 q 7.78176,0 12.10496,4.64744 4.43128,4.64744 4.43128,12.75344 v 40.85424 h -9.94336 v -39.4492 q 0,-6.05248 -2.26968,-8.53832 -2.26968,-2.48584 -6.70096,-2.48584 -4.53936,0 -7.99792,2.59392 -3.45856,2.59392 -6.4848,7.45752 v 40.42192 h -9.94337 V 771.22 h 8.53833 l 0.86464,8.43024 q 3.02624,-4.53936 7.45752,-7.13328 4.53936,-2.59392 9.94336,-2.59392 z"
           id="text7"
           style="font-size:108.08px;font-family:'Fira Sans';-inkscape-font-specification:'Fira Sans, Normal';fill:#03aed2;stroke:#444444;stroke-width:0"
           aria-label="n" />
        <path
           d="m 360.78539,748.30704 v 79.87112 h -8.75448 l -0.97272,-7.88984 q -2.81008,4.3232 -7.0252,6.80904 -4.21512,2.37776 -9.40296,2.37776 -10.15952,0 -15.88776,-7.99792 -5.62016,-7.99792 -5.62016,-21.50792 0,-8.75448 2.702,-15.56352 2.702,-6.80904 7.78176,-10.59184 5.07976,-3.89088 11.8888,-3.89088 8.75448,0 15.34736,7.0252 v -29.83008 z m -23.99376,73.27824 q 4.53936,0 7.78176,-2.05352 3.2424,-2.1616 6.26864,-6.37672 V 785.2704 q -2.81008,-3.67472 -6.05248,-5.51208 -3.13432,-1.94544 -7.13328,-1.94544 -6.59288,0 -10.2676,5.51208 -3.56664,5.51208 -3.56664,16.42816 0,11.02416 3.35048,16.42816 3.35048,5.404 9.61912,5.404 z"
           id="text6"
           style="font-size:108.08px;font-family:'Fira Sans';-inkscape-font-specification:'Fira Sans, Normal';fill:#03aed2;stroke:#444444;stroke-width:0"
           aria-label="d" />
        <path
           d="m 392.97421,829.47512 q -5.51208,0 -8.75448,-3.2424 -3.13432,-3.35048 -3.13432,-9.29488 v -68.6308 l 9.94336,-1.18888 v 69.60352 q 0,2.26968 0.75656,3.45856 0.86464,1.0808 2.81008,1.0808 2.05352,0 3.67472,-0.64848 l 2.59392,6.91712 q -3.56664,1.94544 -7.88984,1.94544 z"
           id="text5"
           style="font-size:108.08px;font-family:'Fira Sans';-inkscape-font-specification:'Fira Sans, Normal';fill:#68d2e8;stroke:#444444;stroke-width:0"
           aria-label="l" />
        <path
           d="m 430.65444,769.92304 q 11.99688,0 18.58976,7.99792 6.70096,7.99792 6.70096,21.72408 0,8.86256 -3.02624,15.6716 -3.02624,6.70096 -8.75448,10.48376 -5.72824,3.67472 -13.61808,3.67472 -11.99688,0 -18.69784,-7.99792 -6.70096,-7.99792 -6.70096,-21.72408 0,-8.86256 3.02624,-15.56352 3.02624,-6.80904 8.75448,-10.48376 5.72824,-3.7828 13.72616,-3.7828 z m 0,7.99792 q -14.80696,0 -14.80696,21.83216 0,21.72408 14.69888,21.72408 14.69888,0 14.69888,-21.83216 0,-21.72408 -14.5908,-21.72408 z"
           id="text4"
           style="font-size:108.08px;font-family:'Fira Sans';-inkscape-font-specification:'Fira Sans, Normal';fill:#68d2e8;stroke:#444444;stroke-width:0"
           aria-label="o" />
        <path
           d="m 493.78077,769.92304 q 5.07976,0 9.29488,1.51312 4.21512,1.40504 8.106,4.64744 l -4.75552,6.26864 q -3.02624,-2.1616 -5.9444,-3.13432 -2.81008,-1.0808 -6.26864,-1.0808 -6.91712,0 -10.808,5.51208 -3.7828,5.51208 -3.7828,16.32008 0,10.808 3.7828,15.99584 3.7828,5.07976 10.808,5.07976 3.35048,0 6.16056,-0.97272 2.81008,-1.0808 6.26864,-3.35048 l 4.53936,6.4848 q -7.78176,6.26864 -17.40088,6.26864 -11.56456,0 -18.26552,-7.78176 -6.59288,-7.78176 -6.59288,-21.50792 0,-9.07872 3.02624,-15.88776 3.02624,-6.80904 8.53832,-10.59184 5.62016,-3.7828 13.29384,-3.7828 z"
           id="text3"
           style="font-size:108.08px;font-family:'Fira Sans';-inkscape-font-specification:'Fira Sans, Normal';fill:#68d2e8;stroke:#444444;stroke-width:0"
           aria-label="c" />
        <path
           d="m 533.24671,828.17816 h -9.94336 v -79.87112 l 9.94336,-1.18888 z m 11.78072,-31.77552 23.34528,31.77552 h -11.8888 L 533.89519,797.05112 554.86271,771.22 h 11.13224 z"
           id="text2"
           style="font-size:108.08px;font-family:'Fira Sans';-inkscape-font-specification:'Fira Sans, Normal';fill:#68d2e8;stroke:#444444;stroke-width:0"
           aria-label="k" />
      </g>
    </g>
  </g>
  <metadata
     id="metadata1">
    <rdf:RDF>
      <cc:Work
         rdf:about="">
        <dc:title>Landlock logo</dc:title>
        <dc:date>2024</dc:date>
        <dc:creator>
          <cc:Agent>
            <dc:title>Mickaël Salaün</dc:title>
          </cc:Agent>
        </dc:creator>
        <cc:license
           rdf:resource="http://creativecommons.org/licenses/by-sa/4.0/" />
      </cc:Work>
      <cc:License
         rdf:about="http://creativecommons.org/licenses/by-sa/4.0/">
        <cc:permits
           rdf:resource="http://creativecommons.org/ns#Reproduction" />
        <cc:permits
           rdf:resource="http://creativecommons.org/ns#Distribution" />
        <cc:requires
           rdf:resource="http://creativecommons.org/ns#Notice" />
        <cc:requires
           rdf:resource="http://creativecommons.org/ns#Attribution" />
        <cc:permits
           rdf:resource="http://creativecommons.org/ns#DerivativeWorks" />
        <cc:requires
           rdf:resource="http://creativecommons.org/ns#ShareAlike" />
      </cc:License>
    </rdf:RDF>
  </metadata>
</svg>
